<mxfile host="Electron" agent="Mozilla/5.0 (Windows NT 10.0; Win64; x64) AppleWebKit/537.36 (KHTML, like Gecko) draw.io/24.7.8 Chrome/128.0.6613.36 Electron/32.0.1 Safari/537.36" version="24.7.8">
  <diagram name="Page-1" id="WNwNMR1_wofxQgRBwkjz">
    <mxGraphModel dx="3032" dy="2017" grid="1" gridSize="10" guides="1" tooltips="1" connect="1" arrows="1" fold="1" page="1" pageScale="1" pageWidth="850" pageHeight="1100" math="0" shadow="0">
      <root>
        <mxCell id="0" />
        <mxCell id="1" parent="0" />
        <mxCell id="_1eiPBgx3b557fX_4ImB-3" value="" style="edgeStyle=orthogonalEdgeStyle;rounded=0;orthogonalLoop=1;jettySize=auto;html=1;" parent="1" source="_1eiPBgx3b557fX_4ImB-1" target="_1eiPBgx3b557fX_4ImB-2" edge="1">
          <mxGeometry relative="1" as="geometry" />
        </mxCell>
        <mxCell id="_1eiPBgx3b557fX_4ImB-1" value="&lt;font style=&quot;font-size: 20px;&quot;&gt;&lt;b&gt;start&lt;/b&gt;&lt;/font&gt;" style="strokeWidth=2;html=1;shape=mxgraph.flowchart.start_1;whiteSpace=wrap;" parent="1" vertex="1">
          <mxGeometry x="375" y="-1060" width="100" height="60" as="geometry" />
        </mxCell>
        <mxCell id="_1eiPBgx3b557fX_4ImB-5" value="" style="edgeStyle=orthogonalEdgeStyle;rounded=0;orthogonalLoop=1;jettySize=auto;html=1;" parent="1" source="_1eiPBgx3b557fX_4ImB-2" target="_1eiPBgx3b557fX_4ImB-4" edge="1">
          <mxGeometry relative="1" as="geometry" />
        </mxCell>
        <mxCell id="_1eiPBgx3b557fX_4ImB-2" value="&lt;div&gt;&lt;span style=&quot;background-color: initial;&quot;&gt;&lt;b&gt;output&lt;/b&gt;&lt;/span&gt;&lt;/div&gt;&lt;div&gt;&lt;b&gt;=====Jadwal Dokter RS YULJE=====&amp;nbsp;&lt;/b&gt;&lt;/div&gt;&lt;div&gt;&lt;b&gt;&lt;br&gt;&lt;/b&gt;&lt;/div&gt;&lt;div&gt;&lt;b&gt;1. Lihat Jadwal Praktik dan Operasi Dokter&lt;/b&gt;&lt;/div&gt;&lt;div&gt;&lt;b&gt;2. Tambah Jadwal Dokter&lt;/b&gt;&lt;/div&gt;&lt;div&gt;&lt;b&gt;3. Perbarui Jadwal Operasi Dokter&lt;/b&gt;&lt;/div&gt;&lt;div&gt;&lt;b&gt;4. Hapus Jadwal Operasi Dokter&lt;/b&gt;&lt;/div&gt;&lt;div&gt;&lt;b&gt;5. Keluar&lt;/b&gt;&lt;/div&gt;" style="shape=parallelogram;perimeter=parallelogramPerimeter;whiteSpace=wrap;html=1;fixedSize=1;strokeWidth=2;" parent="1" vertex="1">
          <mxGeometry x="295" y="-970" width="260" height="170" as="geometry" />
        </mxCell>
        <mxCell id="_1eiPBgx3b557fX_4ImB-9" value="" style="edgeStyle=orthogonalEdgeStyle;rounded=0;orthogonalLoop=1;jettySize=auto;html=1;" parent="1" source="_1eiPBgx3b557fX_4ImB-4" target="_1eiPBgx3b557fX_4ImB-8" edge="1">
          <mxGeometry relative="1" as="geometry" />
        </mxCell>
        <mxCell id="_1eiPBgx3b557fX_4ImB-15" value="" style="edgeStyle=orthogonalEdgeStyle;rounded=0;orthogonalLoop=1;jettySize=auto;html=1;" parent="1" source="_1eiPBgx3b557fX_4ImB-4" target="_1eiPBgx3b557fX_4ImB-14" edge="1">
          <mxGeometry relative="1" as="geometry" />
        </mxCell>
        <mxCell id="GTgPP7iloBgMzB63NUCS-4" value="" style="edgeStyle=orthogonalEdgeStyle;rounded=0;orthogonalLoop=1;jettySize=auto;html=1;" edge="1" parent="1" source="_1eiPBgx3b557fX_4ImB-4" target="GTgPP7iloBgMzB63NUCS-3">
          <mxGeometry relative="1" as="geometry" />
        </mxCell>
        <mxCell id="GTgPP7iloBgMzB63NUCS-29" value="" style="edgeStyle=orthogonalEdgeStyle;rounded=0;orthogonalLoop=1;jettySize=auto;html=1;" edge="1" parent="1" source="_1eiPBgx3b557fX_4ImB-4" target="GTgPP7iloBgMzB63NUCS-28">
          <mxGeometry relative="1" as="geometry" />
        </mxCell>
        <mxCell id="GTgPP7iloBgMzB63NUCS-39" value="" style="edgeStyle=orthogonalEdgeStyle;rounded=0;orthogonalLoop=1;jettySize=auto;html=1;" edge="1" parent="1" source="_1eiPBgx3b557fX_4ImB-4" target="GTgPP7iloBgMzB63NUCS-38">
          <mxGeometry relative="1" as="geometry" />
        </mxCell>
        <mxCell id="_1eiPBgx3b557fX_4ImB-4" value="&lt;b&gt;Input&lt;/b&gt;&lt;div&gt;&lt;b&gt;&quot;Masukkan pilihan menu&quot;&lt;/b&gt;&lt;/div&gt;" style="shape=parallelogram;perimeter=parallelogramPerimeter;whiteSpace=wrap;html=1;fixedSize=1;strokeWidth=2;" parent="1" vertex="1">
          <mxGeometry x="345" y="-770" width="161" height="80" as="geometry" />
        </mxCell>
        <mxCell id="_1eiPBgx3b557fX_4ImB-11" value="" style="edgeStyle=orthogonalEdgeStyle;rounded=0;orthogonalLoop=1;jettySize=auto;html=1;" parent="1" source="_1eiPBgx3b557fX_4ImB-8" target="_1eiPBgx3b557fX_4ImB-10" edge="1">
          <mxGeometry relative="1" as="geometry" />
        </mxCell>
        <mxCell id="_1eiPBgx3b557fX_4ImB-8" value="&lt;b&gt;Pilih = 1&lt;/b&gt;" style="whiteSpace=wrap;html=1;strokeWidth=2;" parent="1" vertex="1">
          <mxGeometry x="30" y="-660" width="120" height="60" as="geometry" />
        </mxCell>
        <mxCell id="_1eiPBgx3b557fX_4ImB-13" value="" style="edgeStyle=orthogonalEdgeStyle;rounded=0;orthogonalLoop=1;jettySize=auto;html=1;" parent="1" source="_1eiPBgx3b557fX_4ImB-10" target="_1eiPBgx3b557fX_4ImB-12" edge="1">
          <mxGeometry relative="1" as="geometry" />
        </mxCell>
        <mxCell id="_1eiPBgx3b557fX_4ImB-10" value="&lt;b&gt;Output&lt;/b&gt;&lt;div&gt;&lt;b&gt;&quot;Lihat Jadwal Dokter&quot;&lt;/b&gt;&lt;/div&gt;" style="shape=parallelogram;perimeter=parallelogramPerimeter;whiteSpace=wrap;html=1;fixedSize=1;strokeWidth=2;" parent="1" vertex="1">
          <mxGeometry x="20" y="-570" width="140" height="60" as="geometry" />
        </mxCell>
        <mxCell id="GTgPP7iloBgMzB63NUCS-50" style="edgeStyle=orthogonalEdgeStyle;rounded=0;orthogonalLoop=1;jettySize=auto;html=1;exitX=0;exitY=0.5;exitDx=0;exitDy=0;" edge="1" parent="1" source="_1eiPBgx3b557fX_4ImB-12">
          <mxGeometry relative="1" as="geometry">
            <mxPoint x="-20" y="-760" as="targetPoint" />
          </mxGeometry>
        </mxCell>
        <mxCell id="_1eiPBgx3b557fX_4ImB-12" value="&lt;b&gt;Input&lt;/b&gt;&lt;div&gt;&lt;b&gt;&quot;Enter untuk kembali memilih menu&quot;&lt;br&gt;&lt;/b&gt;&lt;div&gt;&lt;br&gt;&lt;/div&gt;&lt;/div&gt;" style="shape=parallelogram;perimeter=parallelogramPerimeter;whiteSpace=wrap;html=1;fixedSize=1;strokeWidth=2;" parent="1" vertex="1">
          <mxGeometry x="20" y="-480" width="140" height="60" as="geometry" />
        </mxCell>
        <mxCell id="_1eiPBgx3b557fX_4ImB-17" value="" style="edgeStyle=orthogonalEdgeStyle;rounded=0;orthogonalLoop=1;jettySize=auto;html=1;" parent="1" source="_1eiPBgx3b557fX_4ImB-14" target="_1eiPBgx3b557fX_4ImB-16" edge="1">
          <mxGeometry relative="1" as="geometry" />
        </mxCell>
        <mxCell id="_1eiPBgx3b557fX_4ImB-14" value="&lt;b&gt;Pilih = 2&lt;/b&gt;" style="whiteSpace=wrap;html=1;strokeWidth=2;" parent="1" vertex="1">
          <mxGeometry x="200" y="-660" width="120" height="60" as="geometry" />
        </mxCell>
        <mxCell id="_1eiPBgx3b557fX_4ImB-19" value="" style="edgeStyle=orthogonalEdgeStyle;rounded=0;orthogonalLoop=1;jettySize=auto;html=1;" parent="1" source="_1eiPBgx3b557fX_4ImB-16" target="_1eiPBgx3b557fX_4ImB-18" edge="1">
          <mxGeometry relative="1" as="geometry" />
        </mxCell>
        <mxCell id="_1eiPBgx3b557fX_4ImB-16" value="&lt;b&gt;Output&lt;/b&gt;&lt;div&gt;&lt;b&gt;&quot;Tambah Jadwal Dokter&quot;&lt;/b&gt;&lt;/div&gt;" style="shape=parallelogram;perimeter=parallelogramPerimeter;whiteSpace=wrap;html=1;fixedSize=1;strokeWidth=2;" parent="1" vertex="1">
          <mxGeometry x="180" y="-575" width="160" height="70" as="geometry" />
        </mxCell>
        <mxCell id="20WrRs78_SAE-2gXvcFM-2" value="" style="edgeStyle=orthogonalEdgeStyle;rounded=0;orthogonalLoop=1;jettySize=auto;html=1;" parent="1" source="_1eiPBgx3b557fX_4ImB-18" target="20WrRs78_SAE-2gXvcFM-1" edge="1">
          <mxGeometry relative="1" as="geometry" />
        </mxCell>
        <mxCell id="_1eiPBgx3b557fX_4ImB-18" value="&lt;b&gt;Input&lt;/b&gt;&lt;div&gt;&lt;b&gt;&quot;Nama Dokter, Praktik, Hari, Jam, Jenis Operasi, Jadwal Operasi&quot;&lt;/b&gt;&lt;/div&gt;" style="shape=parallelogram;perimeter=parallelogramPerimeter;whiteSpace=wrap;html=1;fixedSize=1;strokeWidth=2;" parent="1" vertex="1">
          <mxGeometry x="157.5" y="-480" width="205" height="110" as="geometry" />
        </mxCell>
        <mxCell id="GTgPP7iloBgMzB63NUCS-2" value="" style="edgeStyle=orthogonalEdgeStyle;rounded=0;orthogonalLoop=1;jettySize=auto;html=1;" edge="1" parent="1" source="20WrRs78_SAE-2gXvcFM-1" target="GTgPP7iloBgMzB63NUCS-1">
          <mxGeometry relative="1" as="geometry" />
        </mxCell>
        <mxCell id="20WrRs78_SAE-2gXvcFM-1" value="&lt;b&gt;Output&lt;/b&gt;&lt;div&gt;&lt;b&gt;&quot;Jadwal Dokter berhasil ditambah&quot;&lt;/b&gt;&lt;/div&gt;" style="shape=parallelogram;perimeter=parallelogramPerimeter;whiteSpace=wrap;html=1;fixedSize=1;strokeWidth=2;" parent="1" vertex="1">
          <mxGeometry x="183.75" y="-340" width="152.5" height="60" as="geometry" />
        </mxCell>
        <mxCell id="GTgPP7iloBgMzB63NUCS-52" style="edgeStyle=orthogonalEdgeStyle;rounded=0;orthogonalLoop=1;jettySize=auto;html=1;exitX=0;exitY=0.5;exitDx=0;exitDy=0;" edge="1" parent="1" source="GTgPP7iloBgMzB63NUCS-1">
          <mxGeometry relative="1" as="geometry">
            <mxPoint x="-20" y="-450" as="targetPoint" />
          </mxGeometry>
        </mxCell>
        <mxCell id="GTgPP7iloBgMzB63NUCS-1" value="&lt;b&gt;Input&lt;/b&gt;&lt;div&gt;&lt;b&gt;&quot;Enter untuk kembali memilih menu&quot;&lt;/b&gt;&lt;/div&gt;" style="shape=parallelogram;perimeter=parallelogramPerimeter;whiteSpace=wrap;html=1;fixedSize=1;strokeWidth=2;" vertex="1" parent="1">
          <mxGeometry x="183.75" y="-250" width="152.5" height="60" as="geometry" />
        </mxCell>
        <mxCell id="GTgPP7iloBgMzB63NUCS-6" value="" style="edgeStyle=orthogonalEdgeStyle;rounded=0;orthogonalLoop=1;jettySize=auto;html=1;" edge="1" parent="1" source="GTgPP7iloBgMzB63NUCS-3" target="GTgPP7iloBgMzB63NUCS-5">
          <mxGeometry relative="1" as="geometry" />
        </mxCell>
        <mxCell id="GTgPP7iloBgMzB63NUCS-3" value="&lt;b&gt;Pilih = 3&lt;/b&gt;" style="whiteSpace=wrap;html=1;strokeWidth=2;" vertex="1" parent="1">
          <mxGeometry x="400" y="-660" width="120" height="60" as="geometry" />
        </mxCell>
        <mxCell id="GTgPP7iloBgMzB63NUCS-8" value="" style="edgeStyle=orthogonalEdgeStyle;rounded=0;orthogonalLoop=1;jettySize=auto;html=1;" edge="1" parent="1" source="GTgPP7iloBgMzB63NUCS-5" target="GTgPP7iloBgMzB63NUCS-7">
          <mxGeometry relative="1" as="geometry" />
        </mxCell>
        <mxCell id="GTgPP7iloBgMzB63NUCS-5" value="&lt;b&gt;Output&lt;/b&gt;&lt;div&gt;&lt;b&gt;&quot;Perbarui Jadwal Operasi Dokter&quot;&lt;/b&gt;&lt;/div&gt;" style="shape=parallelogram;perimeter=parallelogramPerimeter;whiteSpace=wrap;html=1;fixedSize=1;strokeWidth=2;" vertex="1" parent="1">
          <mxGeometry x="380" y="-575" width="160" height="65" as="geometry" />
        </mxCell>
        <mxCell id="GTgPP7iloBgMzB63NUCS-12" value="" style="edgeStyle=orthogonalEdgeStyle;rounded=0;orthogonalLoop=1;jettySize=auto;html=1;" edge="1" parent="1" source="GTgPP7iloBgMzB63NUCS-7" target="GTgPP7iloBgMzB63NUCS-11">
          <mxGeometry relative="1" as="geometry" />
        </mxCell>
        <mxCell id="GTgPP7iloBgMzB63NUCS-7" value="&lt;b&gt;Input&lt;/b&gt;&lt;div&gt;&lt;b&gt;&quot;Jenis Operasi baru dan Tanggal Operasi baru&quot;&lt;/b&gt;&lt;/div&gt;" style="shape=parallelogram;perimeter=parallelogramPerimeter;whiteSpace=wrap;html=1;fixedSize=1;strokeWidth=2;" vertex="1" parent="1">
          <mxGeometry x="380" y="-480" width="160" height="65" as="geometry" />
        </mxCell>
        <mxCell id="GTgPP7iloBgMzB63NUCS-14" value="" style="edgeStyle=orthogonalEdgeStyle;rounded=0;orthogonalLoop=1;jettySize=auto;html=1;" edge="1" parent="1" source="GTgPP7iloBgMzB63NUCS-11" target="GTgPP7iloBgMzB63NUCS-13">
          <mxGeometry relative="1" as="geometry" />
        </mxCell>
        <mxCell id="GTgPP7iloBgMzB63NUCS-11" value="&lt;b&gt;Output&lt;/b&gt;&lt;div&gt;&lt;b&gt;&quot;Jadwal Operasi berhasil diperbarui&quot;&lt;/b&gt;&lt;/div&gt;" style="shape=parallelogram;perimeter=parallelogramPerimeter;whiteSpace=wrap;html=1;fixedSize=1;strokeWidth=2;" vertex="1" parent="1">
          <mxGeometry x="380" y="-370" width="160" height="65" as="geometry" />
        </mxCell>
        <mxCell id="GTgPP7iloBgMzB63NUCS-43" style="edgeStyle=orthogonalEdgeStyle;rounded=0;orthogonalLoop=1;jettySize=auto;html=1;exitX=0.5;exitY=1;exitDx=0;exitDy=0;" edge="1" parent="1" source="GTgPP7iloBgMzB63NUCS-13">
          <mxGeometry relative="1" as="geometry">
            <mxPoint x="460" y="-180" as="targetPoint" />
          </mxGeometry>
        </mxCell>
        <mxCell id="GTgPP7iloBgMzB63NUCS-13" value="&lt;b&gt;Input&lt;/b&gt;&lt;div&gt;&lt;b&gt;&quot;Enter untuk kembali memilih menu&quot;&lt;/b&gt;&lt;/div&gt;" style="shape=parallelogram;perimeter=parallelogramPerimeter;whiteSpace=wrap;html=1;fixedSize=1;strokeWidth=2;" vertex="1" parent="1">
          <mxGeometry x="365" y="-260" width="190" height="60" as="geometry" />
        </mxCell>
        <mxCell id="GTgPP7iloBgMzB63NUCS-31" value="" style="edgeStyle=orthogonalEdgeStyle;rounded=0;orthogonalLoop=1;jettySize=auto;html=1;" edge="1" parent="1" source="GTgPP7iloBgMzB63NUCS-28" target="GTgPP7iloBgMzB63NUCS-30">
          <mxGeometry relative="1" as="geometry" />
        </mxCell>
        <mxCell id="GTgPP7iloBgMzB63NUCS-28" value="&lt;b&gt;Pilih = 4&lt;/b&gt;" style="whiteSpace=wrap;html=1;strokeWidth=2;" vertex="1" parent="1">
          <mxGeometry x="595" y="-660" width="120" height="60" as="geometry" />
        </mxCell>
        <mxCell id="GTgPP7iloBgMzB63NUCS-33" value="" style="edgeStyle=orthogonalEdgeStyle;rounded=0;orthogonalLoop=1;jettySize=auto;html=1;" edge="1" parent="1" source="GTgPP7iloBgMzB63NUCS-30" target="GTgPP7iloBgMzB63NUCS-32">
          <mxGeometry relative="1" as="geometry" />
        </mxCell>
        <mxCell id="GTgPP7iloBgMzB63NUCS-30" value="&lt;b&gt;Output&lt;/b&gt;&lt;div&gt;&lt;b&gt;&quot;Hapus Jadwal Operasi&quot;&lt;/b&gt;&lt;/div&gt;" style="shape=parallelogram;perimeter=parallelogramPerimeter;whiteSpace=wrap;html=1;fixedSize=1;strokeWidth=2;" vertex="1" parent="1">
          <mxGeometry x="580" y="-575" width="150" height="65" as="geometry" />
        </mxCell>
        <mxCell id="GTgPP7iloBgMzB63NUCS-35" value="" style="edgeStyle=orthogonalEdgeStyle;rounded=0;orthogonalLoop=1;jettySize=auto;html=1;" edge="1" parent="1" source="GTgPP7iloBgMzB63NUCS-32" target="GTgPP7iloBgMzB63NUCS-34">
          <mxGeometry relative="1" as="geometry" />
        </mxCell>
        <mxCell id="GTgPP7iloBgMzB63NUCS-32" value="&lt;b&gt;Input&lt;/b&gt;&lt;div&gt;&lt;b&gt;&quot;Jenis Operasi dan Tanggal Operasi yang ingin dihapus&quot;&lt;/b&gt;&lt;/div&gt;" style="shape=parallelogram;perimeter=parallelogramPerimeter;whiteSpace=wrap;html=1;fixedSize=1;strokeWidth=2;" vertex="1" parent="1">
          <mxGeometry x="560" y="-480" width="190" height="75" as="geometry" />
        </mxCell>
        <mxCell id="GTgPP7iloBgMzB63NUCS-37" value="" style="edgeStyle=orthogonalEdgeStyle;rounded=0;orthogonalLoop=1;jettySize=auto;html=1;" edge="1" parent="1" source="GTgPP7iloBgMzB63NUCS-34" target="GTgPP7iloBgMzB63NUCS-36">
          <mxGeometry relative="1" as="geometry" />
        </mxCell>
        <mxCell id="GTgPP7iloBgMzB63NUCS-34" value="&lt;b&gt;Output&lt;/b&gt;&lt;div&gt;&lt;b&gt;&quot;Jadwal Operasi berhasil dihapus&quot;&lt;/b&gt;&lt;/div&gt;" style="shape=parallelogram;perimeter=parallelogramPerimeter;whiteSpace=wrap;html=1;fixedSize=1;strokeWidth=2;" vertex="1" parent="1">
          <mxGeometry x="550" y="-375" width="210" height="75" as="geometry" />
        </mxCell>
        <mxCell id="GTgPP7iloBgMzB63NUCS-54" style="edgeStyle=orthogonalEdgeStyle;rounded=0;orthogonalLoop=1;jettySize=auto;html=1;exitX=0.5;exitY=1;exitDx=0;exitDy=0;" edge="1" parent="1" source="GTgPP7iloBgMzB63NUCS-36">
          <mxGeometry relative="1" as="geometry">
            <mxPoint x="-20" y="-270" as="targetPoint" />
          </mxGeometry>
        </mxCell>
        <mxCell id="GTgPP7iloBgMzB63NUCS-36" value="&lt;b&gt;Input&lt;/b&gt;&lt;div&gt;&lt;b&gt;&quot;Enter untuk kembali memilih menu&quot;&lt;/b&gt;&lt;/div&gt;" style="shape=parallelogram;perimeter=parallelogramPerimeter;whiteSpace=wrap;html=1;fixedSize=1;strokeWidth=2;" vertex="1" parent="1">
          <mxGeometry x="567.5" y="-260" width="175" height="60" as="geometry" />
        </mxCell>
        <mxCell id="GTgPP7iloBgMzB63NUCS-41" value="" style="edgeStyle=orthogonalEdgeStyle;rounded=0;orthogonalLoop=1;jettySize=auto;html=1;" edge="1" parent="1" source="GTgPP7iloBgMzB63NUCS-38" target="GTgPP7iloBgMzB63NUCS-40">
          <mxGeometry relative="1" as="geometry" />
        </mxCell>
        <mxCell id="GTgPP7iloBgMzB63NUCS-38" value="&lt;b&gt;Pilih = 5&lt;/b&gt;" style="whiteSpace=wrap;html=1;strokeWidth=2;" vertex="1" parent="1">
          <mxGeometry x="760" y="-660" width="120" height="60" as="geometry" />
        </mxCell>
        <mxCell id="GTgPP7iloBgMzB63NUCS-40" value="&lt;b&gt;Output&lt;/b&gt;&lt;div&gt;&lt;b&gt;Keluar&lt;/b&gt;&lt;/div&gt;" style="shape=parallelogram;perimeter=parallelogramPerimeter;whiteSpace=wrap;html=1;fixedSize=1;strokeWidth=2;" vertex="1" parent="1">
          <mxGeometry x="760" y="-570" width="120" height="60" as="geometry" />
        </mxCell>
        <mxCell id="GTgPP7iloBgMzB63NUCS-51" value="" style="edgeStyle=none;orthogonalLoop=1;jettySize=auto;html=1;rounded=0;entryX=0;entryY=0;entryDx=0;entryDy=0;" edge="1" parent="1" target="_1eiPBgx3b557fX_4ImB-4">
          <mxGeometry width="100" relative="1" as="geometry">
            <mxPoint x="-20" y="-760" as="sourcePoint" />
            <mxPoint x="80" y="-760" as="targetPoint" />
            <Array as="points" />
          </mxGeometry>
        </mxCell>
      </root>
    </mxGraphModel>
  </diagram>
</mxfile>
